<?xml version="1.0" encoding="utf-8"?>
<!-- Generator: Adobe Illustrator 22.0.1, SVG Export Plug-In . SVG Version: 6.00 Build 0)  -->
<svg version="1.1" id="Layer_1" xmlns="http://www.w3.org/2000/svg" xmlns:xlink="http://www.w3.org/1999/xlink" x="0px" y="0px"
	 viewBox="0 0 160 110" style="enable-background:new 0 0 160 110;" xml:space="preserve">
<style type="text/css">
	.st0{fill:none;stroke:#424242;stroke-width:3.2003;stroke-miterlimit:10;}
	.st1{fill:none;stroke:#424242;stroke-width:3.436;stroke-miterlimit:10;}
	.st2{fill:none;stroke:#424242;stroke-width:5.7606;stroke-miterlimit:10;}
	.st3{fill:none;stroke:#424242;stroke-width:9.601;stroke-miterlimit:10;}
	.st4{fill:none;stroke:#424242;stroke-width:6.4007;stroke-miterlimit:10;}
</style>
<g>
	<polyline class="st0" points="40.3,108.4 40.3,11.1 80,11.1 80,108.4 	"/>
	<polyline class="st0" points="8.9,108.4 8.9,35.4 35.8,24.6 	"/>
	<polyline class="st0" points="111.4,108.4 111.4,50.8 85.2,50.8 	"/>
	<line class="st1" x1="15.4" y1="41.2" x2="21.7" y2="41.2"/>
	<line class="st1" x1="15.4" y1="51.3" x2="21.7" y2="51.3"/>
	<line class="st1" x1="15.4" y1="61.5" x2="21.7" y2="61.5"/>
	<line class="st1" x1="15.4" y1="71.6" x2="21.7" y2="71.6"/>
	<line class="st1" x1="15.4" y1="81.7" x2="21.7" y2="81.7"/>
	<line class="st1" x1="15.4" y1="91.8" x2="21.7" y2="91.8"/>
	<line class="st1" x1="27.5" y1="41.2" x2="33.9" y2="41.2"/>
	<line class="st1" x1="27.5" y1="51.3" x2="33.9" y2="51.3"/>
	<line class="st1" x1="27.5" y1="61.5" x2="33.9" y2="61.5"/>
	<line class="st1" x1="27.5" y1="71.6" x2="33.9" y2="71.6"/>
	<line class="st1" x1="27.5" y1="81.7" x2="33.9" y2="81.7"/>
	<line class="st1" x1="27.5" y1="91.8" x2="33.9" y2="91.8"/>
	<line class="st2" x1="49.9" y1="18.9" x2="49.9" y2="25.9"/>
	<line class="st2" x1="60.1" y1="18.9" x2="60.1" y2="25.9"/>
	<line class="st2" x1="70.4" y1="18.9" x2="70.4" y2="25.9"/>
	<line class="st2" x1="49.9" y1="32.6" x2="49.9" y2="39.6"/>
	<line class="st2" x1="60.1" y1="32.6" x2="60.1" y2="39.6"/>
	<line class="st2" x1="70.4" y1="32.6" x2="70.4" y2="39.6"/>
	<line class="st2" x1="49.9" y1="46.3" x2="49.9" y2="53.3"/>
	<line class="st2" x1="60.1" y1="46.3" x2="60.1" y2="53.3"/>
	<line class="st2" x1="70.4" y1="46.3" x2="70.4" y2="53.3"/>
	<line class="st2" x1="49.9" y1="60" x2="49.9" y2="67"/>
	<line class="st2" x1="60.1" y1="60" x2="60.1" y2="67"/>
	<line class="st2" x1="70.4" y1="60" x2="70.4" y2="67"/>
	<line class="st2" x1="49.9" y1="73.7" x2="49.9" y2="80.7"/>
	<line class="st2" x1="60.1" y1="73.7" x2="60.1" y2="80.7"/>
	<line class="st2" x1="70.4" y1="73.7" x2="70.4" y2="80.7"/>
	<line class="st2" x1="49.9" y1="87.4" x2="49.9" y2="94.4"/>
	<line class="st2" x1="60.1" y1="87.4" x2="60.1" y2="94.4"/>
	<line class="st3" x1="60.1" y1="100.2" x2="60.1" y2="107.2"/>
	<line class="st2" x1="70.4" y1="87.4" x2="70.4" y2="94.4"/>
	<line class="st2" x1="121.6" y1="46.3" x2="121.6" y2="53.3"/>
	<line class="st2" x1="131.8" y1="46.3" x2="131.8" y2="53.3"/>
	<line class="st2" x1="142.1" y1="46.3" x2="142.1" y2="53.3"/>
	<line class="st2" x1="121.6" y1="60" x2="121.6" y2="67"/>
	<line class="st2" x1="131.8" y1="60" x2="131.8" y2="67"/>
	<line class="st2" x1="142.1" y1="60" x2="142.1" y2="67"/>
	<line class="st2" x1="121.6" y1="73.7" x2="121.6" y2="80.7"/>
	<line class="st2" x1="131.8" y1="73.7" x2="131.8" y2="80.7"/>
	<line class="st2" x1="142.1" y1="73.7" x2="142.1" y2="80.7"/>
	<line class="st2" x1="121.6" y1="87.4" x2="121.6" y2="94.4"/>
	<line class="st2" x1="131.8" y1="87.4" x2="131.8" y2="94.4"/>
	<line class="st2" x1="142.1" y1="87.4" x2="142.1" y2="94.4"/>
	<line class="st4" x1="24.9" y1="100.2" x2="24.9" y2="107.2"/>
	<line class="st1" x1="87" y1="61.5" x2="93.4" y2="61.5"/>
	<line class="st1" x1="87" y1="71.6" x2="93.4" y2="71.6"/>
	<line class="st1" x1="87" y1="81.7" x2="93.4" y2="81.7"/>
	<line class="st1" x1="87" y1="91.8" x2="93.4" y2="91.8"/>
	<line class="st1" x1="99.2" y1="61.5" x2="105.6" y2="61.5"/>
	<line class="st1" x1="99.2" y1="71.6" x2="105.6" y2="71.6"/>
	<line class="st1" x1="99.2" y1="81.7" x2="105.6" y2="81.7"/>
	<line class="st1" x1="99.2" y1="91.8" x2="105.6" y2="91.8"/>
	<line class="st4" x1="96.7" y1="100.2" x2="96.7" y2="107.2"/>
	<polyline class="st0" points="111.4,45.1 111.4,36.7 151.1,36.7 151.1,108.4 	"/>
	<line class="st3" x1="131.2" y1="100.2" x2="131.2" y2="107.2"/>
	<polyline class="st0" points="51.8,10.5 51.8,1.6 68.5,1.6 68.5,10.5 	"/>
	<line class="st0" x1="160" y1="108.4" x2="0" y2="108.4"/>
</g>
</svg>
