<?xml version="1.0" encoding="utf-8"?>
<!-- Generator: Adobe Illustrator 22.0.1, SVG Export Plug-In . SVG Version: 6.00 Build 0)  -->
<svg version="1.1" id="Layer_1" xmlns="http://www.w3.org/2000/svg" xmlns:xlink="http://www.w3.org/1999/xlink" x="0px" y="0px"
	 viewBox="0 0 340 174" style="enable-background:new 0 0 340 174;" xml:space="preserve">
<style type="text/css">
	.st0{fill:none;stroke:#424242;stroke-width:5;stroke-miterlimit:10;}
	.st1{fill:none;stroke:#424242;stroke-width:8;stroke-miterlimit:10;}
</style>
<g>
	<g>
		<g>
			<polyline class="st0" points="65.6,137.2 65.6,168.2 14.2,168.2 14.2,137.2 			"/>
			<polyline class="st0" points="2.3,148.2 39.9,110.6 77.5,148.2 			"/>
			<line class="st1" x1="39.9" y1="168.9" x2="39.9" y2="152.7"/>
		</g>
		<g>
			<polyline class="st0" points="151,137.2 151,168.2 99.6,168.2 99.6,137.2 			"/>
			<polyline class="st0" points="87.7,148.2 125.3,110.6 162.9,148.2 			"/>
			<line class="st1" x1="125.3" y1="168.9" x2="125.3" y2="152.7"/>
		</g>
		<g>
			<polyline class="st0" points="237.8,137.2 237.8,168.2 186.3,168.2 186.3,137.2 			"/>
			<polyline class="st0" points="174.5,148.2 212.1,110.6 249.7,148.2 			"/>
			<line class="st1" x1="212.1" y1="168.9" x2="212.1" y2="152.7"/>
		</g>
		<g>
			<polyline class="st0" points="325.8,137.2 325.8,168.2 274.4,168.2 274.4,137.2 			"/>
			<polyline class="st0" points="262.5,148.2 300.1,110.6 337.7,148.2 			"/>
			<line class="st1" x1="300.1" y1="168.9" x2="300.1" y2="152.7"/>
		</g>
	</g>
	<g>
		<g>
			<line class="st0" x1="56.9" y1="101.1" x2="56.9" y2="84.4"/>
			<line class="st0" x1="108.3" y1="84.4" x2="108.3" y2="101.1"/>
			<polyline class="st0" points="45,95.5 82.6,57.9 120.2,95.5 			"/>
			<line class="st1" x1="82.6" y1="116.1" x2="82.6" y2="99.9"/>
		</g>
		<g>
			<line class="st0" x1="144.3" y1="101.1" x2="144.3" y2="84.4"/>
			<line class="st0" x1="195.7" y1="84.4" x2="195.7" y2="101.1"/>
			<polyline class="st0" points="132.4,95.5 170,57.9 207.6,95.5 			"/>
			<line class="st1" x1="170" y1="116.1" x2="170" y2="99.9"/>
		</g>
		<g>
			<line class="st0" x1="230.4" y1="101.1" x2="230.4" y2="84.4"/>
			<line class="st0" x1="281.8" y1="84.4" x2="281.8" y2="101.1"/>
			<polyline class="st0" points="218.5,95.5 256.1,57.9 293.7,95.5 			"/>
			<line class="st1" x1="256.1" y1="116.1" x2="256.1" y2="99.9"/>
		</g>
	</g>
	<g>
		<g>
			<line class="st0" x1="14.6" y1="48.4" x2="14.6" y2="31.7"/>
			<line class="st0" x1="66" y1="31.7" x2="66" y2="48.4"/>
			<polyline class="st0" points="2.7,42.7 40.3,5.1 77.9,42.7 			"/>
			<line class="st1" x1="40.3" y1="63.4" x2="40.3" y2="47.2"/>
		</g>
		<g>
			<line class="st0" x1="100" y1="48.4" x2="100" y2="31.7"/>
			<line class="st0" x1="151.4" y1="31.7" x2="151.4" y2="48.4"/>
			<polyline class="st0" points="88.1,42.7 125.7,5.1 163.3,42.7 			"/>
			<line class="st1" x1="125.7" y1="63.4" x2="125.7" y2="47.2"/>
		</g>
		<g>
			<line class="st0" x1="186.8" y1="48.4" x2="186.8" y2="31.7"/>
			<line class="st0" x1="238.2" y1="31.7" x2="238.2" y2="48.4"/>
			<polyline class="st0" points="174.9,42.7 212.5,5.1 250.1,42.7 			"/>
			<line class="st1" x1="212.5" y1="63.4" x2="212.5" y2="47.2"/>
		</g>
		<g>
			<line class="st0" x1="274" y1="48.4" x2="274" y2="31.7"/>
			<line class="st0" x1="325.4" y1="31.7" x2="325.4" y2="48.4"/>
			<polyline class="st0" points="262.1,42.7 299.7,5.1 337.3,42.7 			"/>
			<line class="st1" x1="299.7" y1="63.4" x2="299.7" y2="47.2"/>
		</g>
	</g>
</g>
</svg>
