<?xml version="1.0" encoding="utf-8"?>
<!-- Generator: Adobe Illustrator 22.0.1, SVG Export Plug-In . SVG Version: 6.00 Build 0)  -->
<svg version="1.1" id="Layer_1" xmlns="http://www.w3.org/2000/svg" xmlns:xlink="http://www.w3.org/1999/xlink" x="0px" y="0px"
	 viewBox="0 0 180 112" style="enable-background:new 0 0 180 112;" xml:space="preserve">
<style type="text/css">
	.st0{fill:none;stroke:#424242;stroke-width:3.5837;stroke-miterlimit:10;}
	.st1{fill:none;stroke:#424242;stroke-width:7.1674;stroke-miterlimit:10;}
</style>
<g>
	<g>
		<polyline class="st0" points="10.4,109.6 10.4,41.9 63.7,49.7 63.7,62.3 117,70 117,82.6 170.2,90.3 170.2,108.9 		"/>
		<polyline class="st0" points="154,87.5 151,40.4 139.8,40.4 136.9,85.4 		"/>
		<polyline class="st0" points="102,67.5 99,21.5 87.9,21.5 85,66.1 		"/>
		<polyline class="st0" points="50,47.5 47.1,2.6 35.9,2.6 33.1,45.5 		"/>
		<polyline class="st0" points="114.3,108.9 114.3,95.3 60.2,95.3 60.2,108.9 		"/>
		<line class="st1" x1="50" y1="66.1" x2="50" y2="74.6"/>
		<line class="st1" x1="36.8" y1="66.1" x2="36.8" y2="74.6"/>
		<line class="st1" x1="23.6" y1="66.1" x2="23.6" y2="74.6"/>
	</g>
	<line class="st0" x1="180.3" y1="108.9" x2="0.3" y2="109.6"/>
</g>
</svg>
