<?xml version="1.0" encoding="utf-8"?>
<!-- Generator: Adobe Illustrator 22.0.1, SVG Export Plug-In . SVG Version: 6.00 Build 0)  -->
<svg version="1.1" id="Layer_1" xmlns="http://www.w3.org/2000/svg" xmlns:xlink="http://www.w3.org/1999/xlink" x="0px" y="0px"
	 viewBox="0 0 180 74" style="enable-background:new 0 0 180 74;" xml:space="preserve">
<style type="text/css">
	.st0{fill:none;stroke:#424242;stroke-width:3.6004;stroke-miterlimit:10;}
	.st1{fill:none;stroke:#424242;stroke-width:7.2007;stroke-miterlimit:10;}
</style>
<g>
	<polyline class="st0" points="44.7,24 91.5,4.6 177.2,40.6 	"/>
	<line class="st0" x1="165" y1="35.6" x2="165" y2="70.1"/>
	<line class="st0" x1="117.4" y1="16.1" x2="117.4" y2="71.6"/>
	<line class="st0" x1="116.7" y1="45" x2="165" y2="45"/>
	<line class="st0" x1="140.8" y1="26.3" x2="140.8" y2="70.1"/>
	<polyline class="st0" points="76.4,70.8 76.4,38.5 91.5,38.5 91.5,70.8 	"/>
	<polyline class="st0" points="13,70.1 13,31.9 67.7,31.9 67.7,70.1 	"/>
	<g>
		<line class="st1" x1="24.9" y1="44.3" x2="24.9" y2="54.3"/>
		<line class="st1" x1="40.4" y1="44.3" x2="40.4" y2="54.3"/>
		<line class="st1" x1="55.9" y1="44.3" x2="55.9" y2="54.3"/>
	</g>
	<path class="st0" d="M13.8,32.3c-2.9-2.9-4.7-6.9-4.7-11.2c0-8.8,7.1-15.8,15.8-15.8s15.8,7.1,15.8,15.8c0,3.7-1.3,7.2-3.4,9.8"/>
	<line class="st0" x1="25.1" y1="13.9" x2="25.1" y2="30.9"/>
	<line class="st0" x1="15.5" y1="17.9" x2="24.2" y2="23.4"/>
	<line class="st0" x1="34.2" y1="22.3" x2="25.6" y2="27.7"/>
	<path class="st0" d="M39.6,13.6c0.9-6.4,6.4-11.2,12.9-11.2c7.2,0,13,5.9,13,13"/>
	<line class="st0" x1="52.5" y1="9.6" x2="52.5" y2="20.8"/>
	<line class="st0" x1="44.7" y1="12.8" x2="51.8" y2="17.2"/>
	<line class="st0" x1="180" y1="70.1" x2="0" y2="70.1"/>
</g>
</svg>
