<?xml version="1.0" encoding="UTF-8" standalone="no"?>
<svg
   xmlns:dc="http://purl.org/dc/elements/1.1/"
   xmlns:cc="http://creativecommons.org/ns#"
   xmlns:rdf="http://www.w3.org/1999/02/22-rdf-syntax-ns#"
   xmlns:svg="http://www.w3.org/2000/svg"
   xmlns="http://www.w3.org/2000/svg"
   xmlns:sodipodi="http://sodipodi.sourceforge.net/DTD/sodipodi-0.dtd"
   xmlns:inkscape="http://www.inkscape.org/namespaces/inkscape"
   version="1.1"
   id="Layer_1"
   x="0px"
   y="0px"
   viewBox="0 0 2560 1440"
   style="enable-background:new 0 0 2560 1440;"
   xml:space="preserve"
   sodipodi:docname="back_menu.svg"
   inkscape:version="1.0.1 (3bc2e813f5, 2020-09-07)"><metadata
   id="metadata29"><rdf:RDF><cc:Work
       rdf:about=""><dc:format>image/svg+xml</dc:format><dc:type
         rdf:resource="http://purl.org/dc/dcmitype/StillImage" /><dc:title></dc:title></cc:Work></rdf:RDF></metadata><defs
   id="defs27" /><sodipodi:namedview
   pagecolor="#ffffff"
   bordercolor="#666666"
   borderopacity="1"
   objecttolerance="10"
   gridtolerance="10"
   guidetolerance="10"
   inkscape:pageopacity="0"
   inkscape:pageshadow="2"
   inkscape:window-width="1920"
   inkscape:window-height="1137"
   id="namedview25"
   showgrid="false"
   inkscape:zoom="0.41445312"
   inkscape:cx="1280"
   inkscape:cy="720"
   inkscape:window-x="-8"
   inkscape:window-y="-8"
   inkscape:window-maximized="1"
   inkscape:current-layer="Layer_1" />
<style
   type="text/css"
   id="style2">
	.st0{fill:#EFEAE4;}
	.st1{fill:none;stroke:#FFFFFF;stroke-width:2;stroke-miterlimit:10;}
</style>







<g
   id="g863"><g
     id="g8">
	<path
   class="st1"
   d="M 99.3,1440 C 60.5,1115.1 122.5,775.4 298.7,470.2 407.8,281.1 550.5,123.3 714.7,0"
   id="path6" />
</g><g
     id="g12">
	<path
   class="st1"
   d="M 959.4,1440 C 789.5,1189.2 690.3,886.7 690.3,561 690.3,363.3 726.9,174.2 793.6,0"
   id="path10" />
</g><path
     class="st1"
     d="M544.7,1440c132.1-273.9,345.1-512.4,628.3-676c439.8-253.9,951.5-270.8,1387-90.1"
     id="path14" /><path
     class="st1"
     d="M1910.6,0c-542.8,246.9-920.3,794-920.3,1429.2c0,3.6,0,7.2,0,10.8"
     id="path16" /><path
     class="st1"
     d="M2560,756.7c-423.9,81.9-787,334.5-1015,683.3"
     id="path18" /><path
     class="st1"
     d="M1900.3,1440c22.1-212.6,88.3-424.1,202.1-621.1c118.3-204.9,275.8-373,457.6-500.4"
     id="path20" /><path
     class="st1"
     d="M1774.9,0c-230.9,436.4-251.1,972.5-15.7,1440"
     id="path22" /></g>
</svg>
