<?xml version="1.0" encoding="utf-8"?>
<!-- Generator: Adobe Illustrator 22.0.1, SVG Export Plug-In . SVG Version: 6.00 Build 0)  -->
<svg version="1.1" id="Layer_1" xmlns="http://www.w3.org/2000/svg" xmlns:xlink="http://www.w3.org/1999/xlink" x="0px" y="0px"
	 viewBox="0 0 126 94" style="enable-background:new 0 0 126 94;" xml:space="preserve">
<style type="text/css">
	.st0{fill:#FF5F00;}
	.st1{fill:#FFFFFF;}
</style>
<g>
	<g>
		<g>
			<path class="st0" d="M5.9,29c-3.5,2.8-5.4,6.2-5.4,10.6v41.4c0,0.7,0.1,1.5,0.2,2.2c1.1,6,6.4,10.5,12.6,10.5l99.5,0
				c7.7-0.2,13.3-6.5,12.6-14.1c-0.1-0.9-0.1-1.9-0.1-2.9l0.1-37.5c0-4-1.7-7.2-4.8-9.7L70.4,2.1c-5.7-2.6-9.5-2.6-15,0.1L5.9,29z"
				/>
		</g>
	</g>
	<path class="st1" d="M10.7,62.6h10.1c2.5,0,4.2,0.6,5.4,1.8c0.8,0.8,1.3,1.8,1.3,3.2v0.1c0,2.3-1.3,3.6-3,4.4
		c2.4,0.8,3.9,2.1,3.9,4.8v0.1c0,3.4-2.8,5.4-7.5,5.4H10.7V62.6z M19.4,70.5c1.7,0,2.6-0.6,2.6-1.7v-0.1c0-1.1-0.8-1.7-2.5-1.7H16
		v3.5H19.4z M20.2,77.9c1.7,0,2.6-0.6,2.6-1.8v-0.1c0-1.1-0.8-1.8-2.7-1.8H16v3.6H20.2z"/>
	<polygon class="st1" points="30.8,62.6 36.3,62.6 36.3,70 43.3,70 43.3,62.6 48.7,62.6 48.7,82.3 43.3,82.3 43.3,74.8 36.3,74.8 
		36.3,82.3 30.8,82.3 	"/>
	<path class="st1" d="M51.5,72.5L51.5,72.5c0-5.7,4.6-10.3,10.6-10.3c6.1,0,10.6,4.5,10.6,10.2v0.1c0,5.7-4.6,10.2-10.6,10.2
		C56.1,82.7,51.5,78.2,51.5,72.5"/>
	<polygon class="st1" points="75.6,62.6 81.4,62.6 86.1,70.2 90.8,62.6 96.5,62.6 96.5,82.3 91.1,82.3 91.1,71 86.1,78.7 86,78.7 
		80.9,71.1 80.9,82.3 75.6,82.3 	"/>
	<polygon class="st1" points="100,62.6 115.9,62.6 115.9,67.3 105.4,67.3 105.4,70.2 114.9,70.2 114.9,74.5 105.4,74.5 105.4,77.7 
		116,77.7 116,82.3 100,82.3 	"/>
	<polygon class="st0" points="62.9,80.8 62.7,77.1 66.2,78 65.7,75.9 70.4,72.5 69,71.9 69.8,69.2 67.2,70 66.6,68.7 64.2,71.8 
		65.2,66.1 63.6,66.7 62.2,64.1 60.7,66.7 59.1,66.1 60.1,71.8 57.7,68.7 57.2,70 54.5,69.2 55.3,71.9 53.9,72.5 58.6,75.9 58.1,78 
		61.6,77.1 61.4,80.8 	"/>
</g>
</svg>
