<?xml version="1.0" encoding="UTF-8" standalone="no"?>
<svg
   xmlns:dc="http://purl.org/dc/elements/1.1/"
   xmlns:cc="http://creativecommons.org/ns#"
   xmlns:rdf="http://www.w3.org/1999/02/22-rdf-syntax-ns#"
   xmlns:svg="http://www.w3.org/2000/svg"
   xmlns="http://www.w3.org/2000/svg"
   xmlns:sodipodi="http://sodipodi.sourceforge.net/DTD/sodipodi-0.dtd"
   xmlns:inkscape="http://www.inkscape.org/namespaces/inkscape"
   version="1.1"
   id="Layer_1"
   x="0px"
   y="0px"
   viewBox="0 0 2560 392"
   style="enable-background:new 0 0 2560 392;"
   xml:space="preserve"
   sodipodi:docname="footer_web.svg"
   inkscape:version="1.0.1 (3bc2e813f5, 2020-09-07)"><metadata
   id="metadata37"><rdf:RDF><cc:Work
       rdf:about=""><dc:format>image/svg+xml</dc:format><dc:type
         rdf:resource="http://purl.org/dc/dcmitype/StillImage" /><dc:title></dc:title></cc:Work></rdf:RDF></metadata><defs
   id="defs35" /><sodipodi:namedview
   pagecolor="#ffffff"
   bordercolor="#666666"
   borderopacity="1"
   objecttolerance="10"
   gridtolerance="10"
   guidetolerance="10"
   inkscape:pageopacity="0"
   inkscape:pageshadow="2"
   inkscape:window-width="1920"
   inkscape:window-height="1137"
   id="namedview33"
   showgrid="false"
   inkscape:zoom="0.41445312"
   inkscape:cx="1280"
   inkscape:cy="196"
   inkscape:window-x="-8"
   inkscape:window-y="-8"
   inkscape:window-maximized="1"
   inkscape:current-layer="Layer_1" />
<style
   type="text/css"
   id="style2">
	.st0{fill:#EFEAE4;}
	.st1{fill:none;stroke:#FFFFFF;stroke-width:2;stroke-miterlimit:10;}
</style>

<path
   class="st1"
   d="M1529.2,0c17.6,144.6,70.6,278.2,150.1,392"
   id="path20" />
<path
   class="st1"
   d="M1802.1,0c-3.8,2.1-7.6,4.3-11.4,6.5C1629.9,99.3,1509.9,235.6,1437,392"
   id="path22" />
<path
   class="st1"
   d="M1774.2,0c-54.4,113.7-84.9,241.1-84.9,375.6c0,5.5,0.1,11,0.2,16.4"
   id="path24" />
<path
   class="st1"
   d="M2023.1,0c1.3,132.8,33.1,267,98.2,392"
   id="path26" />
<path
   class="st1"
   d="M2560,2.4c-239.3,46.3-443.7,190.7-569.7,389.6"
   id="path28" />
<path
   class="st1"
   d="M2328.9,0c-7.8,12.1-15.3,24.4-22.5,36.9c-65,112.6-102,233.6-113.1,355.1"
   id="path30" />
</svg>
