<?xml version="1.0" encoding="utf-8"?>
<!-- Generator: Adobe Illustrator 22.0.1, SVG Export Plug-In . SVG Version: 6.00 Build 0)  -->
<svg version="1.1" id="Layer_1" xmlns="http://www.w3.org/2000/svg" xmlns:xlink="http://www.w3.org/1999/xlink" x="0px" y="0px"
	 viewBox="0 0 60 60" style="enable-background:new 0 0 60 60;" xml:space="preserve">
<style type="text/css">
	.st0{fill:#FF9455;}
</style>
<g>
	<g>
		<path class="st0" d="M30,43.1c-7.5,0-13.6-5.9-13.6-13.1c0-7.2,6.1-13.1,13.6-13.1S43.6,22.8,43.6,30C43.6,37.2,37.5,43.1,30,43.1
			z M30,20.4c-5.5,0-10,4.3-10,9.6c0,5.3,4.5,9.6,10,9.6s10-4.3,10-9.6C40,24.7,35.5,20.4,30,20.4z"/>
		<path class="st0" d="M46.3,55.1H13.7c-5.3,0-9.7-4.2-9.7-9.3V14.3c0-5.1,4.3-9.3,9.7-9.3h32.6c5.3,0,9.7,4.2,9.7,9.3v31.5
			C56,50.9,51.7,55.1,46.3,55.1z M13.7,8.4c-3.3,0-6.1,2.6-6.1,5.8v31.5c0,3.2,2.7,5.8,6.1,5.8h32.6c3.3,0,6.1-2.6,6.1-5.8V14.3
			c0-3.2-2.7-5.8-6.1-5.8H13.7z"/>
		<path class="st0" d="M48.6,17.3c0,0.7-0.6,1.3-1.3,1.3h-4.1c-0.7,0-1.4-0.6-1.4-1.3v-3.9c0-0.7,0.6-1.3,1.4-1.3h4.1
			c0.7,0,1.3,0.6,1.3,1.3V17.3z"/>
	</g>
</g>
</svg>
