<?xml version="1.0" encoding="utf-8"?>
<!-- Generator: Adobe Illustrator 22.0.1, SVG Export Plug-In . SVG Version: 6.00 Build 0)  -->
<svg version="1.1" id="Layer_1" xmlns="http://www.w3.org/2000/svg" xmlns:xlink="http://www.w3.org/1999/xlink" x="0px" y="0px"
	 viewBox="0 0 60 60" style="enable-background:new 0 0 60 60;" xml:space="preserve">
<style type="text/css">
	.st0{fill:#FF9455;}
</style>
<g>
	<g>
		<g>
			<path class="st0" d="M22,15.9c0.9,0,1.9,0.5,3.1,2c3.1,4,1.5,5.1-0.3,6.8c-1.3,1.2,1.3,4.4,3.9,7.2c2.2,2.3,4.7,4.6,6.2,4.6
				c0.3,0,0.6-0.1,0.8-0.3c1-1,1.9-1.9,3.1-1.9c0.9,0,2.1,0.5,3.7,1.9c3.9,3.3,0.8,5.3-1,7c-0.5,0.5-1.2,0.7-2.2,0.7
				c-3.3,0-8.9-2.6-14.4-8.4c-7.2-7.5-8.9-15.1-6.9-17C19.2,17.5,20.5,15.9,22,15.9 M22,12.8L22,12.8c-2.6,0-4.4,1.8-5.6,3
				c-0.2,0.2-0.3,0.3-0.5,0.5c-2,1.9-2.3,5.4-0.8,9.6c1.3,3.8,4,8,7.6,11.7c5.5,5.7,11.9,9.3,16.6,9.3c2.3,0,3.6-0.8,4.3-1.5
				c0.2-0.2,0.3-0.3,0.5-0.5c1.3-1.2,3.3-3,3.3-5.8c0-1.9-1-3.7-3-5.3c-2.2-1.8-3.9-2.6-5.7-2.6c-1.9,0-3.3,1-4.3,1.9
				c-0.6-0.4-1.8-1.3-3.6-3.3c-1.9-1.9-2.7-3.1-3.1-3.8c2.2-2.3,3.4-5.2-0.3-10C25.9,13.9,24.1,12.8,22,12.8L22,12.8z"/>
		</g>
	</g>
	<g>
		<path class="st0" d="M30.3,4c6.9,0,13.3,2.7,18.2,7.5c4.8,4.8,7.5,11.3,7.5,18.2c0,6.9-2.7,13.3-7.5,18.2
			c-4.8,4.8-11.3,7.5-18.1,7.5c-4.3,0-8.6-1.1-12.3-3.1l-1.1-0.6l-1.2,0.3L5.3,54.7l2.8-10.5l0.3-1.2L7.8,42
			c-5.4-9.9-3.6-22.5,4.4-30.5C17,6.7,23.5,4,30.3,4 M30.3,0.9C23,0.9,15.6,3.7,10,9.4C0.8,18.6-0.9,32.6,5.1,43.5L0.9,59.1
			l15.6-4.2c4.3,2.3,9.1,3.5,13.8,3.5c7.4,0,14.7-2.8,20.3-8.4c11.2-11.2,11.2-29.4,0-40.6C45,3.7,37.7,0.9,30.3,0.9L30.3,0.9z"/>
	</g>
</g>
</svg>
